<?xml version="1.0" encoding="UTF-8" standalone="no"?>
<svg
   width="33"
   height="34"
   version="1.1"
   id="svg1493"
   sodipodi:docname="checkbox-unchecked-active.svg"
   inkscape:version="1.2.2 (b0a8486541, 2022-12-01)"
   xmlns:inkscape="http://www.inkscape.org/namespaces/inkscape"
   xmlns:sodipodi="http://sodipodi.sourceforge.net/DTD/sodipodi-0.dtd"
   xmlns="http://www.w3.org/2000/svg"
   xmlns:svg="http://www.w3.org/2000/svg">
  <defs
     id="defs1497" />
  <sodipodi:namedview
     id="namedview1495"
     pagecolor="#505050"
     bordercolor="#ffffff"
     borderopacity="1"
     inkscape:showpageshadow="0"
     inkscape:pageopacity="0"
     inkscape:pagecheckerboard="1"
     inkscape:deskcolor="#505050"
     showgrid="false"
     inkscape:zoom="24.794118"
     inkscape:cx="9.9418743"
     inkscape:cy="17"
     inkscape:window-width="1920"
     inkscape:window-height="1052"
     inkscape:window-x="0"
     inkscape:window-y="28"
     inkscape:window-maximized="1"
     inkscape:current-layer="g1487" />
  <g
     fill="none"
     fill-rule="evenodd"
     id="g1491">
    <g
       fill="#FFF"
       id="g1487">
      <path
         stroke="#DFE9FD"
         stroke-width="6"
         d="M3 7.3756078C3 5.23353697 4.74547291 3.5 6.8756078 3.5h19.2487844C28.266463 3.5 30 5.24547291 30 7.3756078v19.2487844C30 28.766463 28.2545271 30.5 26.1243922 30.5H6.8756078C4.73353697 30.5 3 28.7545271 3 26.6243922V7.3756078z"
         id="path1483"
         style="stroke:#8a959e;stroke-opacity:1" />
      <path
         stroke="#4C84F5"
         stroke-width="1.4"
         d="M5.3 7.3756078C5.3 6.50733815 6.01220839 5.8 6.8756078 5.8h19.2487844C26.9926619 5.8 27.7 6.51220839 27.7 7.3756078v19.2487844C27.7 27.4926619 26.9877916 28.2 26.1243922 28.2H6.8756078C6.00733815 28.2 5.3 27.4877916 5.3 26.6243922V7.3756078z"
         id="path1485" />
    </g>
    <path
       d="M25.2787559 12.03490152l-1.3696324-1.33158699c-.1164364-.11320203-.3018106-.11320203-.418247 0l-9.35318155 9.09337097c-.11643638.113202-.30181066.113202-.41824704 0l-4.21032439-4.09337097c-.11643638-.11320203-.30181066-.11320203-.41824704 0L7.72124415 17.0349015c-.11879561.1154958-.12147069.3054264-.00597496.424222a.29997608.29997608 0 0 0 .00597496.005975l5.99820376 5.831587c.11643638.113202.30181066.113202.41824704 0L25.2787559 12.46509848c.1187956-.11549573.1214706-.30542639.0059749-.424222a.30002453.30002453 0 0 0-.0059749-.00597496z"
       id="path1489" />
  </g>
</svg>
