<svg xmlns="http://www.w3.org/2000/svg" width="33" height="33">
  <g fill="none" fill-rule="evenodd">
    <path fill="#FFF" stroke="#DFE9FD" stroke-width="6" d="M3 6.8756078C3 4.73353697 4.74547291 3 6.8756078 3h19.2487844C28.266463 3 30 4.74547291 30 6.8756078v19.2487844C30 28.266463 28.2545271 30 26.1243922 30H6.8756078C4.73353697 30 3 28.2545271 3 26.1243922V6.8756078z"/>
    <path fill="#FFF" stroke="#4C84F5" stroke-width="1.4" d="M5.3 6.8756078C5.3 6.00733815 6.01220839 5.3 6.8756078 5.3h19.2487844C26.9926619 5.3 27.7 6.01220839 27.7 6.8756078v19.2487844C27.7 26.9926619 26.9877916 27.7 26.1243922 27.7H6.8756078C6.00733815 27.7 5.3 26.9877916 5.3 26.1243922V6.8756078z"/>
    <path fill="#0065FF" d="M25.7787559 11.53490152l-1.3696324-1.33158699c-.1164364-.11320203-.3018106-.11320203-.418247 0l-9.35318155 9.09337097c-.11643638.113202-.30181066.113202-.41824704 0l-4.21032439-4.09337097c-.11643638-.11320203-.30181066-.11320203-.41824704 0L8.22124415 16.5349015c-.11879561.1154958-.12147069.3054264-.00597496.424222a.29997608.29997608 0 0 0 .00597496.005975l5.99820376 5.831587c.11643638.113202.30181066.113202.41824704 0L25.7787559 11.96509848c.1187956-.11549573.1214706-.30542639.0059749-.424222a.30002453.30002453 0 0 0-.0059749-.00597496z"/>
  </g>
</svg>
