<svg xmlns="http://www.w3.org/2000/svg" width="33" height="34">
  <g fill="none" fill-rule="evenodd">
    <g fill="#FFF">
      <path stroke="#DFE9FD" stroke-width="6" d="M3 7.3756078C3 5.23353697 4.74547291 3.5 6.8756078 3.5h19.2487844C28.266463 3.5 30 5.24547291 30 7.3756078v19.2487844C30 28.766463 28.2545271 30.5 26.1243922 30.5H6.8756078C4.73353697 30.5 3 28.7545271 3 26.6243922V7.3756078z"/>
      <path stroke="#4C84F5" stroke-width="1.4" d="M5.3 7.3756078C5.3 6.50733815 6.01220839 5.8 6.8756078 5.8h19.2487844C26.9926619 5.8 27.7 6.51220839 27.7 7.3756078v19.2487844C27.7 27.4926619 26.9877916 28.2 26.1243922 28.2H6.8756078C6.00733815 28.2 5.3 27.4877916 5.3 26.6243922V7.3756078z"/>
    </g>
    <path d="M25.2787559 12.03490152l-1.3696324-1.33158699c-.1164364-.11320203-.3018106-.11320203-.418247 0l-9.35318155 9.09337097c-.11643638.113202-.30181066.113202-.41824704 0l-4.21032439-4.09337097c-.11643638-.11320203-.30181066-.11320203-.41824704 0L7.72124415 17.0349015c-.11879561.1154958-.12147069.3054264-.00597496.424222a.29997608.29997608 0 0 0 .00597496.005975l5.99820376 5.831587c.11643638.113202.30181066.113202.41824704 0L25.2787559 12.46509848c.1187956-.11549573.1214706-.30542639.0059749-.424222a.30002453.30002453 0 0 0-.0059749-.00597496z"/>
  </g>
</svg>
