<?xml version="1.0" encoding="UTF-8" standalone="no"?>
<svg
   width="25"
   height="24"
   version="1.1"
   id="svg1463"
   sodipodi:docname="checkbox-checked.svg"
   inkscape:version="1.2.2 (b0a8486541, 2022-12-01)"
   xmlns:inkscape="http://www.inkscape.org/namespaces/inkscape"
   xmlns:sodipodi="http://sodipodi.sourceforge.net/DTD/sodipodi-0.dtd"
   xmlns="http://www.w3.org/2000/svg"
   xmlns:svg="http://www.w3.org/2000/svg">
  <defs
     id="defs1467" />
  <sodipodi:namedview
     id="namedview1465"
     pagecolor="#505050"
     bordercolor="#ffffff"
     borderopacity="1"
     inkscape:showpageshadow="0"
     inkscape:pageopacity="0"
     inkscape:pagecheckerboard="1"
     inkscape:deskcolor="#505050"
     showgrid="false"
     inkscape:zoom="35.125"
     inkscape:cx="7.8718861"
     inkscape:cy="12"
     inkscape:window-width="1920"
     inkscape:window-height="1052"
     inkscape:window-x="0"
     inkscape:window-y="28"
     inkscape:window-maximized="1"
     inkscape:current-layer="g1461" />
  <g
     fill="none"
     fill-rule="evenodd"
     id="g1461">
    <path
       fill="#FFF"
       stroke="#E0E0E0"
       stroke-width="1.4"
       d="M1.3 2.3756078C1.3 1.50733815 2.01220839.8 2.8756078.8h19.2487844C22.9926619.8 23.7 1.51220839 23.7 2.3756078v19.2487844C23.7 22.4926619 22.9877916 23.2 22.1243922 23.2H2.8756078C2.00733815 23.2 1.3 22.4877916 1.3 21.6243922V2.3756078z"
       id="path1457"
       style="stroke:#8a959e;stroke-opacity:1" />
    <path
       d="M21.2787559 7.03490152l-1.3696324-1.33158699c-.1164364-.11320203-.3018106-.11320203-.418247 0l-9.35318155 9.09337097c-.11643638.113202-.30181066.113202-.41824704 0l-4.21032439-4.09337097c-.11643638-.11320203-.30181066-.11320203-.41824704 0L3.72124415 12.0349015c-.11879561.1154958-.12147069.3054264-.00597496.424222a.29997608.29997608 0 0 0 .00597496.005975l5.99820376 5.831587c.11643638.113202.30181066.113202.41824704 0L21.2787559 7.46509848c.1187956-.11549573.1214706-.30542639.0059749-.424222a.30002453.30002453 0 0 0-.0059749-.00597496z"
       id="path1459" />
  </g>
</svg>
