<svg xmlns="http://www.w3.org/2000/svg" width="25" height="24">
  <g fill="none" fill-rule="evenodd">
    <path fill="#FFF" stroke="#E0E0E0" stroke-width="1.4" d="M1.3 2.3756078C1.3 1.50733815 2.01220839.8 2.8756078.8h19.2487844C22.9926619.8 23.7 1.51220839 23.7 2.3756078v19.2487844C23.7 22.4926619 22.9877916 23.2 22.1243922 23.2H2.8756078C2.00733815 23.2 1.3 22.4877916 1.3 21.6243922V2.3756078z"/>
    <path d="M21.2787559 7.03490152l-1.3696324-1.33158699c-.1164364-.11320203-.3018106-.11320203-.418247 0l-9.35318155 9.09337097c-.11643638.113202-.30181066.113202-.41824704 0l-4.21032439-4.09337097c-.11643638-.11320203-.30181066-.11320203-.41824704 0L3.72124415 12.0349015c-.11879561.1154958-.12147069.3054264-.00597496.424222a.29997608.29997608 0 0 0 .00597496.005975l5.99820376 5.831587c.11643638.113202.30181066.113202.41824704 0L21.2787559 7.46509848c.1187956-.11549573.1214706-.30542639.0059749-.424222a.30002453.30002453 0 0 0-.0059749-.00597496z"/>
  </g>
</svg>
